<svg width="28" height="37" viewBox="0 0 28 37" fill="none" xmlns="http://www.w3.org/2000/svg">
<path d="M8.85645 7.17498C8.20461 6.49945 7.72112 4.93988 7.41192 3.6322C7.32692 3.27268 6.65976 3.26825 6.57016 3.62666C6.24281 4.93599 5.73658 6.4996 5.07233 7.17498C4.2779 7.98271 2.4975 8.59799 1.27244 8.94618C0.948472 9.03825 0.932161 9.55628 1.25051 9.66622C2.47512 10.0891 4.27034 10.8059 5.07233 11.6032C5.73753 12.2645 6.25298 13.7913 6.58358 15.0394C6.67667 15.3908 7.31163 15.3864 7.39999 15.0338C7.71228 13.7873 8.20421 12.2647 8.85645 11.6032C9.64419 10.8043 11.5132 10.0945 12.8103 9.67291C13.1364 9.56692 13.1211 9.03047 12.7899 8.94186C11.4927 8.59481 9.63745 7.98439 8.85645 7.17498Z" fill="#1F4F80"/>
<path d="M22.3431 3.80443C21.9134 3.35919 21.5948 2.33129 21.391 1.46941C21.335 1.23245 20.8952 1.22954 20.8362 1.46576C20.6204 2.32873 20.2868 3.35929 19.849 3.80443C19.3254 4.33679 18.1519 4.74232 17.3445 4.9718C17.131 5.03249 17.1202 5.37392 17.3301 5.44638C18.1372 5.72511 19.3204 6.19751 19.849 6.72303C20.2874 7.15891 20.6271 8.16517 20.845 8.98778C20.9064 9.2194 21.3249 9.21652 21.3831 8.98409C21.589 8.16252 21.9132 7.15903 22.3431 6.72303C22.8623 6.19645 24.0941 5.72864 24.949 5.45079C25.1639 5.38093 25.1538 5.02736 24.9355 4.96896C24.0806 4.74022 22.8578 4.3379 22.3431 3.80443Z" fill="#1F4F80"/>
<path d="M18.2883 19.94C17.203 18.8153 16.398 16.2187 15.8832 14.0416C15.7417 13.443 14.631 13.4356 14.4818 14.0323C13.9368 16.2123 13.0939 18.8156 11.988 19.94C10.6653 21.2848 7.70111 22.3092 5.66148 22.8889C5.1221 23.0422 5.09494 23.9047 5.62497 24.0877C7.66384 24.7918 10.6527 25.9851 11.988 27.3126C13.0955 28.4137 13.9537 30.9556 14.5041 33.0336C14.6591 33.6187 15.7163 33.6114 15.8634 33.0243C16.3833 30.9489 17.2023 28.414 18.2883 27.3126C19.5998 25.9825 22.7116 24.8007 24.8711 24.0989C25.414 23.9224 25.3885 23.0293 24.8371 22.8817C22.6774 22.3039 19.5886 21.2876 18.2883 19.94Z" fill="#1F4F80"/>
</svg>
